<?xml version="1.0" encoding="utf-8"?>
<!-- Generator: Adobe Illustrator 19.0.0, SVG Export Plug-In . SVG Version: 6.00 Build 0)  -->
<svg version="1.1" id="Layer_1" xmlns="http://www.w3.org/2000/svg" xmlns:xlink="http://www.w3.org/1999/xlink" x="0px" y="0px"
	 viewBox="0 0 606 309" style="enable-background:new 0 0 606 309;" xml:space="preserve">
<style type="text/css">
	.st0{fill:#F06B22;}
	.st1{fill:#76787A;}
</style>
<rect id="XMLID_8_" y="101.4" class="st0" width="66" height="56.1"/>
<rect id="XMLID_7_" y="161.6" class="st1" width="65.6" height="147.3"/>
<rect id="XMLID_6_" x="133.8" y="179.7" class="st1" width="64.8" height="49.2"/>
<polygon id="XMLID_5_" class="st1" points="220.2,204.3 337,102 256.4,102.6 164.9,179.7 133.8,179.7 133.8,101.4 69.1,101.4 
	69.1,308.9 133.8,308.9 133.8,229.6 163.7,229.6 256.5,308.6 336.4,308.6 336.3,299.5 "/>
<path id="XMLID_10_" class="st1" d="M549.3,112.8c-28.5-12.6-64.6-9.3-64.6-9.3s-8.6,49.2-7.8,49.2s25.6,0.4,38.9,0.4
	c8.4,2.9,37.4,25,37.4,48.1c0,42.8-41,57.9-41,57.9h-113v-0.7V152h35.6c2.2-2-23.5-51-23.5-51h-12.3h-61.7v208h61.7l117.8-0.3
	c0,0,39.5-12.4,56.5-29.4c13.4-13.4,32.8-31.3,32.8-84C606,195.3,602.7,136.5,549.3,112.8z"/>
<circle id="XMLID_2_" class="st0" cx="429.1" cy="21.2" r="21.2"/>
<path id="XMLID_1_" class="st0" d="M454.2,247.5c0,0,50.2-252,45.3-243.5c-24.4,42.3-84.4,58.7-138.2,55.7
	C357.8,59.5,457.5,83,454.2,247.5z"/>
</svg>
